<svg preserveAspectRatio="none" overflow="visible" style="display: block;" width="48.0001" height="46.8293" viewBox="0 0 48.0001 46.8293" fill="none" xmlns="http://www.w3.org/2000/svg">
<g id="logomark">
<path id="Vector" fill-rule="evenodd" clip-rule="evenodd" d="M16.4575 0C13.7498 0 11.1532 1.04937 9.23857 2.91726L0 11.9304V16.0561C0 18.9709 1.28333 21.5932 3.32881 23.4146C1.28333 25.236 0 27.8584 0 30.7731V34.8988L9.23857 43.912C11.1532 45.7799 13.7498 46.8293 16.4575 46.8293C19.4452 46.8293 22.133 45.5773 24 43.5816C25.867 45.5773 28.5548 46.8293 31.5425 46.8293C34.2502 46.8293 36.8468 45.7799 38.7614 43.912L48 34.8988V30.7731C48 27.8584 46.7167 25.236 44.6712 23.4146C46.7167 21.5932 48 18.9709 48 16.0561V11.9304L38.7614 2.91726C36.8468 1.04937 34.2502 0 31.5425 0C28.5548 0 25.867 1.25202 24 3.24762C22.133 1.25202 19.4452 0 16.4575 0ZM30.9106 23.4146C30.7955 23.3122 30.6826 23.2069 30.5719 23.099L24 16.6874L17.4281 23.099C17.3174 23.2069 17.2045 23.3122 17.0894 23.4146C17.2045 23.5171 17.3174 23.6223 17.4281 23.7303L24 30.1419L30.5719 23.7303C30.6826 23.6223 30.7955 23.5171 30.9106 23.4146ZM26.6666 34.8988V36.8691C26.6666 39.4963 28.8497 41.6261 31.5425 41.6261C32.8356 41.6261 34.0758 41.1249 34.9902 40.2328L42.6667 32.7435V30.7731C42.6667 28.146 40.4837 26.0162 37.7909 26.0162C36.4978 26.0162 35.2576 26.5174 34.3432 27.4095L26.6666 34.8988ZM21.3334 34.8988L13.6568 27.4095C12.7424 26.5174 11.5023 26.0162 10.2091 26.0162C7.51631 26.0162 5.33333 28.146 5.33333 30.7731V32.7435L13.0098 40.2328C13.9242 41.1249 15.1644 41.6261 16.4575 41.6261C19.1503 41.6261 21.3334 39.4963 21.3334 36.8691V34.8988ZM21.3334 9.96014V11.9304L13.6568 19.4197C12.7424 20.3118 11.5023 20.813 10.2091 20.813C7.51631 20.813 5.33333 18.6832 5.33333 16.0561V14.0858L13.0098 6.59651C13.9242 5.70442 15.1644 5.20326 16.4575 5.20326C19.1503 5.20326 21.3334 7.33298 21.3334 9.96014ZM34.3432 19.4197L26.6666 11.9304V9.96014C26.6666 7.33298 28.8497 5.20326 31.5425 5.20326C32.8356 5.20326 34.0758 5.70442 34.9902 6.59651L42.6667 14.0858V16.0561C42.6667 18.6832 40.4837 20.813 37.7909 20.813C36.4978 20.813 35.2576 20.3118 34.3432 19.4197Z" fill="white"/>
</g>
</svg>
