<svg width="24" height="24" viewBox="0 0 24 24" fill="none" xmlns="http://www.w3.org/2000/svg">
<path d="M15.5 12C15.5 13.933 13.933 15.5 12 15.5C10.067 15.5 8.5 13.933 8.5 12C8.5 10.067 10.067 8.5 12 8.5C13.933 8.5 15.5 10.067 15.5 12Z" stroke="#0A0D1B" stroke-width="1.5"/>
<path d="M21.011 14.0949C21.5329 13.9542 21.7939 13.8838 21.8969 13.7492C22 13.6147 22 13.3982 22 12.9653V11.0316C22 10.5987 22 10.3822 21.8969 10.2477C21.7938 10.1131 21.5329 10.0427 21.011 9.90194C19.0606 9.37595 17.8399 7.33687 18.3433 5.39923C18.4817 4.86635 18.5509 4.59992 18.4848 4.44365C18.4187 4.28738 18.2291 4.1797 17.8497 3.96432L16.125 2.98509C15.7528 2.77375 15.5667 2.66808 15.3997 2.69058C15.2326 2.71308 15.0442 2.90109 14.6672 3.27709C13.208 4.73284 10.7936 4.73278 9.33434 3.277C8.95743 2.90099 8.76898 2.71299 8.60193 2.69048C8.43489 2.66798 8.24877 2.77365 7.87653 2.98499L6.15184 3.96423C5.77253 4.17959 5.58287 4.28727 5.51678 4.44351C5.45068 4.59976 5.51987 4.86623 5.65825 5.39916C6.16137 7.33686 4.93972 9.37599 2.98902 9.90196C2.46712 10.0427 2.20617 10.1131 2.10308 10.2476C2 10.3822 2 10.5987 2 11.0316V12.9653C2 13.3982 2 13.6147 2.10308 13.7492C2.20615 13.8838 2.46711 13.9542 2.98902 14.0949C4.9394 14.6209 6.16008 16.66 5.65672 18.5976C5.51829 19.1305 5.44907 19.3969 5.51516 19.5532C5.58126 19.7095 5.77092 19.8172 6.15025 20.0325L7.87495 21.0118C8.24721 21.2231 8.43334 21.3288 8.6004 21.3063C8.76746 21.2838 8.95588 21.0957 9.33271 20.7197C10.7927 19.2628 13.2088 19.2627 14.6689 20.7196C15.0457 21.0957 15.2341 21.2837 15.4012 21.3062C15.5682 21.3287 15.7544 21.223 16.1266 21.0117L17.8513 20.0324C18.2307 19.8171 18.4204 19.7094 18.4864 19.5531C18.5525 19.3968 18.4833 19.1304 18.3448 18.5975C17.8412 16.66 19.0609 14.621 21.011 14.0949Z" stroke="#0A0D1B" stroke-width="1.5" stroke-linecap="round"/>
</svg>
